<?xml version="1.0" encoding="UTF-8"?><svg id="Camada_2" xmlns="http://www.w3.org/2000/svg" viewBox="0 0 292.07 243.55"><defs><style>.cls-1{fill:#e1913a;fill-rule:evenodd;}</style></defs><g id="Camada_1-2"><path class="cls-1" d="m146.04,186.77c43.03,0,79.76,23.63,94.02,56.77h52c-20.02-46.29-77.83-79.71-146.02-79.71S20.04,197.26,0,243.55h52.03c14.28-33.14,50.95-56.77,94.01-56.77"/><path class="cls-1" d="m141.06,65.95c3.4-5.55,5.2-8.33,5.45-8.33.2,0,1.83,2.77,4.72,8.33l47.21,93.87c28.36,7.81,52.87,21.66,70.63,39.58L189.65,41.69c-3.37-7.02-6.49-12.86-9.26-17.6-2.76-4.71-5.39-8.38-7.8-11.04-6.51-7.74-15.34-12.07-26.42-13.04-5.84.73-10.85,2.24-15.06,4.53-4.21,2.28-8.03,5.23-11.4,8.87-2.65,2.9-5.33,6.64-7.98,11.22-2.67,4.6-5.69,10.3-9.08,17.06L23.04,199.22c17.71-17.81,42.11-31.62,70.43-39.4l47.59-93.87Z"/></g></svg>